<svg xmlns="http://www.w3.org/2000/svg" width="512" height="512" viewBox="0 0 512 512">
  <g id="color">
    <path fill="#ffffff" d="M 258.5 40 L 264 40.5 L 258.5 41 L 258.5 40 Z "/>
    <path fill="#ffffff" d="M 279.5 40 L 285 40.5 L 279.5 41 L 279.5 40 Z "/>
    <path fill="#ffffff" d="M 245.5 42 L 249 42.5 L 242.5 44 L 242.5 43 L 245.5 42 Z "/>
    <path fill="#ffffff" d="M 235.5 45 L 237 45.5 L 233.5 47 L 233.5 46 L 235.5 45 Z "/>
    <path fill="#ffffff" d="M 307.5 46 L 311 47.5 L 309.5 48 L 307.5 46 Z "/>
    <path fill="#ffffff" d="M 312.5 48 L 321 52.5 L 319.5 52 L 312.5 49 L 312.5 48 Z "/>
    <path fill="#ffffff" d="M 225.5 49 L 227 49.5 L 223.5 51 L 223.5 50 L 225.5 49 Z "/>
    <path fill="#ffffff" d="M 219.5 52 L 218.5 54 L 216.5 55 L 217.5 53 L 219.5 52 Z "/>
    <path fill="#ffffff" d="M 322.5 53 L 326 55.5 L 324.5 55 L 322.5 53 Z "/>
    <path fill="#ffffff" d="M 212.5 56 L 210.5 59 L 207.5 61 L 209.5 58 L 212.5 56 Z "/>
    <path fill="#ffffff" d="M 327.5 56 L 334 61.5 L 330.5 59 L 327.5 56 Z "/>
    <path fill="#ffffff" d="M 183.5 84 L 183 85.5 L 181.5 88 L 182 86.5 L 183.5 84 Z "/>
    <path fill="#ffffff" d="M 356.5 88 L 359 92.5 L 358 92.5 L 356.5 88 Z "/>
    <path fill="#ffffff" d="M 180.5 89 L 180 90.5 L 178.5 93 L 179 91.5 L 180.5 89 Z "/>
    <path fill="#ffffff" d="M 176.5 96 L 177 97.5 L 174.5 102 L 174 100.5 L 176.5 96 Z "/>
    <path fill="#ffffff" d="M 142.5 101 L 149 101.5 L 142.5 102 L 142.5 101 Z "/>
    <path fill="#ffffff" d="M 152.5 101 L 160 101.5 L 152.5 102 L 152.5 101 Z "/>
    <path fill="#ffffff" d="M 136.5 102 L 140 102.5 L 133.5 104 L 133.5 103 L 136.5 102 Z "/>
    <path fill="#ffffff" d="M 363.5 104 L 366 114 L 369 114.5 L 366.5 115 Q 362.8 110.8 363.5 104 Z "/>
    <path fill="#ffffff" d="M 119.5 109 L 118.5 111 L 116.5 112 L 117.5 110 L 119.5 109 Z "/>
    <path fill="#ffffff" d="M 382.5 112 L 387 112.5 L 382.5 113 L 382.5 112 Z "/>
    <path fill="#ffffff" d="M 370.5 113 L 376 113.5 L 370.5 114 L 370.5 113 Z "/>
    <path fill="#ffffff" d="M 394.5 113 L 399 113.5 L 394.5 114 L 394.5 113 Z "/>
    <path fill="#ffffff" d="M 400.5 114 L 405 114.5 L 400.5 115 L 400.5 114 Z "/>
    <path fill="#ffffff" d="M 414.5 117 L 419 118.5 L 417.5 119 L 414.5 118 L 414.5 117 Z "/>
    <path fill="#ffffff" d="M 433.5 125 L 437 127.5 L 435.5 127 L 433.5 125 Z "/>
    <path fill="#ffffff" d="M 99.5 128 L 99 129.5 L 97.5 132 L 98 130.5 L 99.5 128 Z "/>
    <path fill="#ffffff" d="M 95.5 135 L 96 136.5 L 94.5 139 L 94 137.5 L 95.5 135 Z "/>
    <path fill="#ffffff" d="M 92.5 143 L 93 144.5 L 90.5 154 L 90 149.5 L 92.5 143 Z "/>
    <path fill="#ffffff" d="M 461.5 151 L 465 155.5 L 462 153.5 L 461.5 151 Z "/>
    <path fill="#ffffff" d="M 466.5 159 L 469 163.5 L 468 163.5 L 466.5 159 Z "/>
    <path fill="#ffffff" d="M 83.5 163 L 86 163.5 L 81.5 165 L 81.5 164 L 83.5 163 Z "/>
    <path fill="#ffffff" d="M 470.5 167 L 472 170.5 L 471 170.5 L 470.5 167 Z "/>
    <path fill="#ffffff" d="M 47.5 193 L 47 194.5 L 45.5 197 L 46 195.5 L 47.5 193 Z "/>
    <path fill="#ffffff" d="M 42.5 202 L 43 203.5 L 41.5 206 L 41 204.5 L 42.5 202 Z "/>
    <path fill="#ffffff" d="M 39.5 211 L 40 213.5 L 38.5 218 L 38 214.5 L 39.5 211 Z "/>
    <path fill="#ffffff" d="M 475.5 218 L 476 220.5 L 474.5 225 L 474 221.5 L 475.5 218 Z "/>
    <path fill="#ffffff" d="M 37.5 219 L 38 224.5 L 37 224.5 L 37.5 219 Z "/>
    <path fill="#ffffff" d="M 470.5 235 L 471 236.5 L 469.5 239 L 469 237.5 L 470.5 235 Z "/>
    <path fill="#ffffff" d="M 37.5 238 L 38 242.5 L 37 242.5 L 37.5 238 Z "/>
    <path fill="#ffffff" d="M 467.5 242 L 467 243.5 L 465.5 246 L 466 244.5 L 467.5 242 Z "/>
    <path fill="#ffffff" d="M 41.5 256 L 43 259.5 L 42 259.5 L 41.5 256 Z "/>
    <path fill="#ffffff" d="M 45.5 265 L 48 268.5 L 46 267.5 L 45.5 265 Z "/>
    <path fill="#ffffff" d="M 434.5 279 L 433.5 281 L 428.5 284 L 429.5 282 L 434.5 279 Z "/>
    <path fill="#ffffff" d="M 426.5 284 L 425.5 286 L 423.5 287 L 424.5 285 L 426.5 284 Z "/>
    <path fill="#ffffff" d="M 420.5 287 L 422 287.5 L 416.5 290 L 416.5 289 L 420.5 287 Z "/>
    <path fill="#ffffff" d="M 70.5 290 L 74 292.5 L 72.5 292 L 70.5 290 Z "/>
    <path fill="#ffffff" d="M 178.5 292 L 181.5 292 L 186 296.5 L 181.5 293 L 176.5 294 L 176.5 293 L 178.5 292 Z "/>
    <path fill="#ffffff" d="M 408.5 292 L 410 292.5 L 405.5 294 L 405.5 293 L 408.5 292 Z "/>
    <path fill="#ffffff" d="M 79.5 295 L 85 297.5 L 83.5 298 L 79.5 296 L 79.5 295 Z "/>
    <path fill="#ffffff" d="M 335.5 295 L 334.5 297 L 331.5 299 L 333.5 296 L 335.5 295 Z "/>
    <path fill="#ffffff" d="M 344.5 295 L 351 296.5 L 347.5 297 L 344.5 296 L 344.5 295 Z "/>
    <path fill="#ffffff" d="M 168.5 296 L 170 296.5 L 166.5 298 L 166.5 297 L 168.5 296 Z "/>
    <path fill="#ffffff" d="M 393.5 296 L 397 296.5 L 389.5 298 L 389.5 297 L 393.5 296 Z "/>
    <path fill="#ffffff" d="M 358.5 298 L 366 298.5 L 358.5 299 L 358.5 298 Z "/>
    <path fill="#ffffff" d="M 379.5 298 L 386 298.5 L 379.5 299 L 379.5 298 Z "/>
    <path fill="#ffffff" d="M 89.5 299 L 94 300.5 L 91.5 301 L 89.5 299 Z "/>
    <path fill="#ffffff" d="M 329.5 299 L 328.5 301 L 326.5 302 L 327.5 300 L 329.5 299 Z "/>
    <path fill="#ffffff" d="M 194.5 302 L 198 304.5 L 196.5 304 L 194.5 302 Z "/>
    <path fill="#ffffff" d="M 105.5 303 L 111 303.5 L 105.5 304 L 105.5 303 Z "/>
    <path fill="#ffffff" d="M 138.5 303 L 143 303.5 L 138.5 304 L 138.5 303 Z "/>
    <path fill="#ffffff" d="M 322.5 303 L 321.5 305 L 318.5 306 L 318.5 305 L 322.5 303 Z "/>
    <path fill="#ffffff" d="M 112.5 304 L 137 304.5 L 112.5 305 L 112.5 304 Z "/>
    <path fill="#ffffff" d="M 201.5 306 L 208 309.5 L 206.5 310 Q 201.9 308.8 201.5 306 Z "/>
    <path fill="#ffffff" d="M 211.5 311 L 215 312.5 L 213.5 313 L 211.5 311 Z "/>
    <path fill="#ffffff" d="M 304.5 311 L 306 311.5 L 302.5 313 L 302.5 312 L 304.5 311 Z "/>
    <path fill="#ffffff" d="M 219.5 314 L 228 316.5 L 225.5 317 L 219.5 315 L 219.5 314 Z "/>
    <path fill="#ffffff" d="M 291.5 315 L 294 315.5 L 288.5 317 L 288.5 316 L 291.5 315 Z "/>
    <path fill="#ffffff" d="M 276.5 318 L 281 318.5 L 276.5 319 L 276.5 318 Z "/>
    <path fill="#ffffff" d="M 240.5 319 L 249 319.5 L 240.5 320 L 240.5 319 Z "/>
    <path fill="#ffffff" d="M 268.5 319 L 275 319.5 L 268.5 320 L 268.5 319 Z "/>
    <path fill="#ffffff" d="M 253.5 320 L 263 320.5 L 253.5 321 L 253.5 320 Z "/>
    <path fill="#ffffff" d="M 156.5 325 Q 163 324 165 327.5 L 163.5 327 L 156.5 326 L 153.5 328 L 154.5 326 L 156.5 325 Z "/>
    <path fill="#ffffff" d="M 353.5 325 Q 363.3 324.7 366 331.5 L 360.5 327 L 353.5 326 L 353.5 325 Z "/>
    <path fill="#ffffff" d="M 149.5 331 L 148 333.5 L 146.5 336 L 147 334.5 L 149.5 331 Z "/>
    <path fill="#ffffff" d="M 169.5 333 L 172 336.5 L 170 335.5 L 169.5 333 Z "/>
    <path fill="#ffffff" d="M 367.5 335 L 371 340.5 L 369 339.5 L 367.5 335 Z "/>
    <path fill="#ffffff" d="M 145.5 337 L 146 338.5 L 143.5 342 L 144 340.5 L 145.5 337 Z "/>
    <path fill="#ffffff" d="M 342.5 337 L 342 338.5 L 337.5 347 L 338 345.5 L 342.5 337 Z "/>
    <path fill="#ffffff" d="M 174.5 342 L 177 345.5 L 175 344.5 L 174.5 342 Z "/>
    <path fill="#ffffff" d="M 371.5 342 L 374 346.5 L 372 345.5 L 371.5 342 Z "/>
    <path fill="#ffffff" d="M 177.5 347 L 180 352.5 L 179 352.5 L 177.5 347 Z "/>
    <path fill="#ffffff" d="M 335.5 350 L 336 351.5 L 333.5 356 L 333 354.5 L 335.5 350 Z "/>
    <path fill="#ffffff" d="M 375.5 350 L 377 353.5 L 376 353.5 L 375.5 350 Z "/>
    <path fill="#ffffff" d="M 137.5 353 L 138 354.5 L 136.5 357 L 136 355.5 L 137.5 353 Z "/>
    <path fill="#ffffff" d="M 331.5 360 L 332 361.5 L 329.5 367 L 329 365.5 L 331.5 360 Z "/>
    <path fill="#ffffff" d="M 379.5 360 L 381 364.5 L 380 364.5 L 379.5 360 Z "/>
    <path fill="#ffffff" d="M 133.5 364 L 134 365.5 L 132.5 369 L 132 366.5 L 133.5 364 Z "/>
    <path fill="#ffffff" d="M 185.5 368 L 187 375.5 L 186 375.5 L 185.5 368 Z "/>
    <path fill="#ffffff" d="M 327.5 373 L 328 377.5 L 327 377.5 L 327.5 373 Z "/>
    <path fill="#ffffff" d="M 383.5 373 L 384 378.5 L 383 378.5 L 383.5 373 Z "/>
    <path fill="#ffffff" d="M 130.5 376 L 131 385.5 L 130 385.5 L 130.5 376 Z "/>
    <path fill="#ffffff" d="M 187.5 378 L 188 385.5 L 187 385.5 L 187.5 378 Z "/>
    <path fill="#ffffff" d="M 383.5 383 L 384 387.5 L 383 387.5 L 383.5 383 Z "/>
    <path fill="#ffffff" d="M 254.5 387 Q 261.8 385.8 264 389.5 L 262.5 389 L 254.5 388 L 254.5 387 Z "/>
    <path fill="#ffffff" d="M 265.5 391 L 269 395.5 L 267 394.5 L 265.5 391 Z "/>
    <path fill="#ffffff" d="M 329.5 392 L 332 396.5 L 330 395.5 L 329.5 392 Z "/>
    <path fill="#ffffff" d="M 380.5 395 L 380 396.5 L 378.5 399 L 379 397.5 L 380.5 395 Z "/>
    <path fill="#ffffff" d="M 269.5 397 L 272 400.5 L 270 399.5 L 269.5 397 Z "/>
    <path fill="#ffffff" d="M 244.5 398 L 244 399.5 L 242.5 402 L 243 400.5 L 244.5 398 Z "/>
    <path fill="#ffffff" d="M 338.5 404 L 343 407.5 L 341.5 407 L 338.5 404 Z "/>
    <path fill="#ffffff" d="M 372.5 404 L 370.5 407 L 365.5 409 L 365.5 408 L 372.5 404 Z "/>
    <path fill="#ffffff" d="M 174.5 405 L 173.5 407 L 171.5 408 L 172.5 406 L 174.5 405 Z "/>
    <path fill="#ffffff" d="M 151.5 409 L 163 410.5 L 154.5 411 L 151.5 410 L 151.5 409 Z "/>
    <path fill="#ffffff" d="M 276.5 410 L 279 415.5 L 278 415.5 L 276.5 410 Z "/>
    <path fill="#ffffff" d="M 351.5 410 L 360 410.5 L 351.5 411 L 351.5 410 Z "/>
    <path fill="#ffffff" d="M 236.5 413 L 237 414.5 L 235.5 417 L 235 415.5 L 236.5 413 Z "/>
    <path fill="#ffffff" d="M 281.5 422 L 283 425.5 L 282 425.5 L 281.5 422 Z "/>
    <path fill="#ffffff" d="M 231.5 426 L 232 428.5 L 230.5 432 L 230 429.5 L 231.5 426 Z "/>
    <path fill="#ffffff" d="M 284.5 431 Q 287.6 437.4 286 448.5 L 285 448.5 L 285 435.5 L 284.5 431 Z "/>
    <path fill="#ffffff" d="M 230.5 452 L 234 458.5 L 232 457.5 L 230.5 452 Z "/>
    <path fill="#ffffff" d="M 279.5 461 L 274.5 467 L 270.5 469 L 270.5 468 L 279.5 461 Z "/>
    <path fill="#ffffff" d="M 239.5 465 L 244 468.5 L 242.5 468 L 239.5 465 Z "/>
    <path fill="#ffffff" d="M 247.5 470 L 255 471.5 L 250.5 472 L 247.5 471 L 247.5 470 Z "/>
    <path fill="#ffffff" d="M 265.5 470 L 267 470.5 Q 264.9 472.9 259.5 472 L 259.5 471 Q 264.3 472.3 265.5 470 Z "/>
    <path fill="#4da3ff" d="M 259.5 54 L 282.5 54 L 302.5 59 L 323.5 70 L 335 81.5 Q 343.3 89.7 348 101.5 L 353 117.5 L 353 122.5 L 356.5 128 L 365.5 129 L 372.5 127 L 396.5 127 L 410.5 130 L 420.5 134 L 443 149 L 454 164.5 L 462 184.5 Q 460.7 189.3 463 190.5 L 463 213.5 L 456 234.5 L 451 244.5 L 443 255 L 440 256.5 L 438.5 259 L 435 260 L 433.5 263 L 431 264.5 Q 431.8 266.8 429.5 266 L 421.5 272 L 405.5 280 Q 398.7 279.7 395.5 283 L 393.5 283 L 383.5 285 L 361.5 285 Q 359.8 282.3 353.5 284 L 342.5 280 L 333.5 280 L 310.5 295 L 287.5 303 L 264.5 306 L 263.5 307 L 262.5 306 L 244.5 306 L 238.5 304 L 228.5 303 L 207.5 295 L 204.5 292 L 196 288 Q 197.1 285.3 194.5 286 L 191 284 L 186.5 278 L 178.5 277 L 164.5 284 Q 155.9 284.4 150.5 288 L 132.5 290 L 131.5 291 L 115.5 291 L 109.5 289 L 107.5 289 L 98.5 288 L 83.5 283 L 64 268.5 L 54 252.5 L 53 244.5 L 51 240.5 L 51 220.5 L 59 199.5 L 67.5 189 Q 70.1 189.7 69 187 L 71 187 L 71 185.5 L 70.5 184 L 72.5 185 Q 81.5 176.5 97.5 175 L 104 169.5 L 104 151.5 L 107 142.5 Q 112.4 131.4 121.5 124 L 127.5 120 L 139.5 116 Q 146.6 113.6 157.5 115 L 174.5 121 L 178.5 121 L 178.5 119 L 182 120 L 188 103.5 L 194 92.5 L 212.5 73 L 221.5 67 L 240.5 58 L 259.5 54 Z "/>
    <path fill="#4da3ff" d="M 159.5 343 L 166 353.5 L 168 362.5 L 172 369.5 L 174 377.5 L 174 383.5 L 170 393 L 165.5 396 L 157.5 397 Q 149.4 395.6 146 389.5 Q 143 385.5 144 377.5 L 146 368.5 L 152 356.5 L 153 351.5 L 159.5 343 Z "/>
    <path fill="#4da3ff" d="M 356.5 343 L 367 364.5 L 371 379.5 Q 368.4 382.4 369 388.5 L 363.5 395 L 358.5 397 L 355.5 396 L 352.5 397 Q 346.8 395.8 344 391.5 Q 339.7 386.4 341 375.5 L 350 350.5 L 354 344 L 356.5 343 Z "/>
    <path fill="#4da3ff" d="M 257.5 404 L 263 412.5 L 269 426.5 L 272 436.5 L 272 447.5 L 265.5 456 Q 261.5 459.5 252.5 458 L 246 453.5 Q 241 448 243 435.5 Q 245.5 424.5 251 416.5 L 251 413.5 L 257.5 404 Z "/>
    <path fill="#66d9e8" d="M 262.5 52 L 288.5 53 L 302.5 57 L 323.5 68 L 339 83.5 L 348 97.5 L 354 114.5 L 355 123.5 L 357.5 127 L 362.5 128 L 373.5 125 L 394.5 125 L 413.5 129 L 420.5 132 Q 434.1 138.4 444 148.5 Q 455.1 159.4 461 175.5 L 465 191.5 L 465 212.5 Q 458.3 244.3 437.5 262 L 423.5 273 L 404.5 282 L 388.5 286 L 364.5 287 L 363.5 286 L 350.5 285 Q 344.8 281.2 335.5 281 Q 320.1 293.1 300.5 301 L 270.5 308 L 245.5 308 L 244.5 307 L 233.5 306 L 216.5 301 Q 197.5 293 184.5 279 L 178.5 279 L 164.5 286 L 145.5 291 L 120.5 293 L 119.5 292 L 110.5 292 L 99.5 290 L 86.5 286 Q 71.3 279.3 61 267.5 L 53 254.5 L 51 248.5 L 49 239.5 L 49 224.5 L 52 211.5 L 56 201.5 L 69.5 185 L 82.5 177 L 97.5 173 L 102 169.5 L 102 154.5 L 106 140.5 Q 112.3 129.8 121.5 122 L 136.5 115 L 145.5 113 L 155.5 113 L 178.5 120 L 182 116.5 Q 185.4 101.9 193 91.5 L 212.5 71 L 238.5 57 L 248.5 54 L 261.5 53 L 262.5 52 Z M 260 54 L 241 58 L 222 67 L 213 73 L 194 93 L 188 104 L 182 120 L 179 121 L 175 121 L 158 115 Q 147 114 140 116 L 128 120 L 122 124 Q 112 131 107 143 L 104 152 L 104 170 L 98 175 Q 82 177 73 185 L 68 189 L 59 200 L 51 221 L 51 241 L 53 245 L 54 253 L 64 269 L 84 283 L 99 288 L 108 289 L 110 289 L 116 291 L 132 291 L 133 290 L 151 288 Q 156 284 165 284 L 179 277 L 187 278 L 191 284 L 195 286 Q 197 285 196 288 L 205 292 L 208 295 L 229 303 L 239 304 L 245 306 L 263 306 L 264 307 L 265 306 L 288 303 L 311 295 L 334 280 L 343 280 L 354 284 Q 360 282 362 285 L 384 285 L 394 283 L 396 283 Q 399 280 406 280 L 422 272 L 430 266 Q 432 267 431 265 L 434 263 L 435 260 L 439 259 L 440 257 L 443 255 L 451 245 L 456 235 L 463 214 L 463 191 Q 461 189 462 185 L 454 165 L 443 149 L 421 134 L 411 130 L 397 127 L 373 127 L 366 129 L 357 128 L 353 123 L 353 118 L 348 102 Q 343 90 335 82 L 324 70 L 303 59 L 283 54 L 260 54 Z "/>
    <path fill="#66d9e8" d="M 158.5 340 L 161 341.5 L 172 364.5 L 175 373.5 L 175 381.5 L 176 382.5 Q 174.5 391.5 168.5 396 Q 163.8 399.8 153.5 398 L 146 392.5 L 143 387.5 L 142 380.5 Q 146 356 158.5 340 Z M 160 343 L 153 352 L 152 357 L 146 369 L 144 378 Q 143 386 146 390 Q 149 396 158 397 L 166 396 L 170 393 L 174 384 L 174 378 L 172 370 L 168 363 L 166 354 L 160 343 Z "/>
    <path fill="#66d9e8" d="M 355.5 340 Q 357.8 339.3 357 341.5 L 370 367.5 L 372 375.5 L 372 385.5 Q 369.8 392.3 364.5 396 Q 360.2 399.7 350.5 398 Q 344.4 396.6 342 391.5 Q 337.8 386.7 339 376.5 Q 343.8 354.8 355.5 340 Z M 357 343 L 354 344 L 350 351 L 341 376 Q 340 386 344 392 Q 347 396 353 397 L 356 396 L 359 397 L 364 395 L 369 389 Q 368 382 371 380 L 367 365 L 357 343 Z "/>
    <path fill="#66d9e8" d="M 256 401 L 259 402.5 L 270 424.5 L 274 438.5 L 274 445.5 Q 272.4 454.4 265.5 458 Q 261.8 461.3 253.5 460 Q 246.8 457.8 243 452.5 Q 239.8 446.8 241 436.5 L 243 428.5 L 256 401 Z M 258 404 L 251 414 L 251 417 Q 245 424 243 436 Q 241 448 246 454 L 253 458 Q 262 460 266 456 L 272 448 L 272 437 L 269 427 L 263 413 L 258 404 Z "/>
  </g>
  <g id="line">
    <path fill="#1a1a1a" d="M 264.5 40 L 287.5 41 L 311.5 48 Q 333.6 57.9 348 75.5 L 361 97.5 L 364 110.5 L 366.5 115 L 376.5 113 L 393.5 113 L 410.5 116 L 432.5 125 Q 447.4 133.6 458 146.5 Q 467.7 158.3 473 174.5 L 477 193.5 L 477 210.5 L 473 229.5 L 468 241.5 Q 459 258.5 445.5 271 Q 431.9 283.4 413.5 291 L 388.5 298 L 366.5 299 L 365.5 298 L 355.5 298 Q 348.1 294.4 337.5 294 Q 320.7 306.7 298.5 314 L 282.5 318 L 268.5 319 L 267.5 320 L 249.5 320 L 248.5 319 L 239.5 319 L 228.5 317 L 215.5 313 Q 195.2 305.8 181.5 292 L 178.5 292 L 165.5 298 L 150.5 302 L 138.5 303 L 137.5 304 L 111.5 304 L 94.5 301 L 78.5 295 Q 62.5 287.5 52 274.5 Q 44 265.5 40 252.5 L 37 237.5 L 37 225.5 L 40 209.5 L 43 201.5 Q 49.4 186.9 60.5 177 L 71.5 169 L 90 161.5 Q 91.8 130.3 110.5 116 L 128.5 105 L 140.5 102 L 151.5 101 L 152.5 102 L 161.5 102 L 172.5 105 L 184 83.5 L 203.5 63 Q 214.9 53.9 229.5 48 L 240.5 44 L 254.5 41 L 263.5 41 L 264.5 40 Z M 263 52 L 262 53 L 249 54 L 239 57 L 213 71 L 193 92 Q 185 102 182 117 L 178 120 L 156 113 L 146 113 L 137 115 L 122 122 Q 112 130 106 141 L 102 155 L 102 170 L 98 173 L 83 177 L 71 184 L 56 202 L 52 212 L 49 225 L 49 240 L 51 249 L 53 255 L 61 268 Q 71 279 87 286 L 100 290 L 111 292 L 120 292 L 121 293 L 146 291 L 165 286 L 179 279 L 185 279 Q 197 293 217 301 L 234 306 L 245 307 L 246 308 L 271 308 L 301 301 Q 320 293 336 281 Q 345 281 351 285 L 364 286 L 365 287 L 389 286 L 405 282 L 424 273 L 438 262 Q 458 244 465 213 L 465 192 L 461 176 Q 455 159 444 149 Q 434 138 421 132 L 414 129 L 395 125 L 374 125 L 363 128 L 358 127 L 355 124 L 354 115 L 348 98 L 339 84 L 324 68 L 303 57 L 289 53 L 263 52 Z "/>
    <path fill="#1a1a1a" d="M 156.5 326 Q 164.5 325 167 329.5 L 181 355.5 L 187 376.5 L 187 386.5 Q 184.6 399.1 175.5 405 L 163.5 410 L 154.5 410 Q 144 408 138 401.5 L 131 387.5 L 131 373.5 Q 137.7 346.7 152.5 328 L 156.5 326 Z M 159 340 Q 146 356 142 381 L 143 388 L 146 393 L 154 398 Q 164 400 169 396 Q 175 392 176 383 L 175 382 L 175 374 L 172 365 L 161 342 L 159 340 Z "/>
    <path fill="#1a1a1a" d="M 352.5 326 L 358.5 326 L 366 332.5 L 378 356.5 L 383 372.5 L 384 382.5 L 381 394.5 L 373.5 404 Q 366.2 411.2 350.5 410 Q 338.6 407.9 333 399.5 Q 327 392 327 378.5 Q 332.9 346.9 350.5 327 L 352.5 326 Z M 356 340 Q 344 355 339 377 Q 338 387 342 392 Q 344 397 351 398 Q 360 400 365 396 Q 370 392 372 386 L 372 376 L 370 368 L 357 342 Q 358 339 356 340 Z "/>
    <path fill="#1a1a1a" d="M 253.5 388 Q 261.8 387 265 390 Q 275.7 406.1 283 426.5 L 285 435.5 L 285 449.5 Q 282.4 460.4 274.5 466 L 264.5 471 L 255.5 472 L 246.5 470 L 237 463.5 L 230 451.5 L 229 438.5 Q 235 408.5 251.5 389 L 253.5 388 Z M 256 401 L 243 429 L 241 437 Q 240 447 243 453 Q 247 458 254 460 Q 262 461 266 458 Q 272 454 274 446 L 274 439 L 270 425 L 259 403 L 256 401 Z "/>
  </g>
</svg>
